<svg width="570" height="162" viewBox="0 0 570 162" fill="none" xmlns="http://www.w3.org/2000/svg">
<path fill-rule="evenodd" clip-rule="evenodd" d="M127.551 38.856C127.551 37.4241 126.785 36.1014 125.544 35.388L65.9671 1.14752C64.7311 0.437163 63.2105 0.438303 61.9756 1.1505L2.61145 35.3869C1.37292 36.1012 0.609811 37.4223 0.609811 38.852V68.8458C0.609811 70.2966 1.39545 71.6338 2.66286 72.34L59.5251 104.023C61.4412 105.091 63.8598 104.416 64.9466 102.511L66.1814 100.346C67.2644 98.4477 66.6228 96.0313 64.7406 94.92L15.3141 65.7366C14.0955 65.0171 13.3478 63.7073 13.3478 62.2921V45.362C13.3478 43.9325 14.1107 42.6117 15.3488 41.8973L62.0835 14.9333C63.3194 14.2202 64.8416 14.2195 66.0782 14.9314L112.918 41.8979C114.158 42.6118 114.923 43.9337 114.923 45.3645V53.0615C114.923 55.2707 113.132 57.0615 110.923 57.0615H101.792C99.583 57.0615 97.7921 55.2707 97.7921 53.0615V49.8868C97.7921 48.4604 97.0326 47.142 95.7986 46.4265L66.0858 29.1978C64.8454 28.4786 63.315 28.4782 62.0743 29.1969L32.1438 46.535C30.9091 47.2503 30.1488 48.5692 30.1488 49.9962V57.2773C30.1488 58.7209 30.9267 60.0525 32.1842 60.7616L82.25 88.9908C83.5075 89.6998 84.2854 91.0314 84.2854 92.4751V106.329C84.2854 107.755 83.5269 109.072 82.2943 109.788L66.0581 119.218C64.8323 119.93 63.3213 119.94 62.0862 119.244L6.46304 87.9141C3.7966 86.4123 0.5 88.339 0.5 91.3993V122.255C0.5 123.681 1.25958 125 2.49354 125.715L62.0721 160.261C63.3139 160.981 64.8463 160.981 66.0876 160.26L125.56 125.716C126.792 125 127.551 123.682 127.551 122.257V90.4032C127.551 87.3181 124.206 85.3944 121.539 86.9457L102.925 97.7744C100.258 99.3256 96.9136 97.4019 96.9136 94.3168V85.6398C96.9136 84.1955 96.1351 82.8634 94.8767 82.1546L50.0484 56.9038C47.3592 55.3891 47.326 51.5284 49.9888 49.9677L62.085 42.8779C63.3198 42.1542 64.8472 42.1454 66.0903 42.8548L82.8171 52.4006C84.0645 53.1124 84.8345 54.4384 84.8345 55.8746V61.5045C84.8345 63.7137 86.6253 65.5045 88.8345 65.5045H123.551C125.76 65.5045 127.551 63.7137 127.551 61.5045V38.856ZM61.9816 132.544C63.2135 133.248 64.7264 133.247 65.9574 132.541L109.042 107.828C111.709 106.299 115.032 108.224 115.032 111.298V116.185C115.032 117.616 114.268 118.938 113.028 119.652L65.9703 146.744C64.7326 147.456 63.2088 147.455 61.9724 146.74L15.126 119.653C13.8896 118.938 13.1282 117.618 13.1282 116.19V111.504C13.1282 108.432 16.4471 106.507 19.1138 108.032L61.9816 132.544Z" fill="white" stroke="white"/>
<path d="M178.977 103.122V95.1217H189.697V99.8417L192.337 102.482H208.897L211.617 99.7617V90.4817L208.977 87.8417H187.777L179.137 79.2017V64.4017L187.777 55.7617H213.057L221.697 64.4017V72.4817H210.977V67.6817L208.337 65.0417H192.497L189.857 67.6817V75.9217L192.497 78.5617H213.697L222.337 87.2017V102.962L213.537 111.762H187.617L178.977 103.122ZM233.514 55.7617H269.354L278.954 65.3617V102.162L269.354 111.762H233.514V55.7617ZM263.994 102.482L268.074 98.4017V69.1217L263.994 65.0417H244.394V102.482H263.994ZM285.42 55.7617H296.62L310.54 98.8017H310.7L324.62 55.7617H335.82L315.9 111.762H305.34L285.42 55.7617ZM341.03 63.6017V58.4817L344.71 54.8017H350.31L353.99 58.4817V63.6017L350.31 67.2817H344.71L341.03 63.6017ZM342.23 71.9217H352.79V111.762H342.23V71.9217ZM365.227 102.562V64.9617L374.427 55.7617H402.267L411.307 64.8017V73.3617H400.427V68.8017L396.667 65.0417H380.187L376.107 69.1217V98.4017L380.187 102.482H396.827L400.747 98.5617V89.8417H388.747V80.5617H411.307V102.562L402.107 111.762H374.427L365.227 102.562ZM437.388 55.7617H447.308L467.788 111.762H456.748L452.188 99.3617H432.508L427.948 111.762H416.908L437.388 55.7617ZM449.788 90.4017L442.348 69.1217H442.188L434.988 90.4017H449.788ZM475.427 71.9217H485.187V77.7617L491.027 71.9217H506.547L514.787 80.2417V103.442L506.547 111.762H491.107L485.987 107.522V128.722H475.427V71.9217ZM501.427 102.802L504.227 100.002V83.6817L501.427 80.8817H492.387L485.987 87.3617V97.1217L492.307 102.802H501.427ZM525.952 71.9217H535.712V77.7617L541.552 71.9217H557.072L565.312 80.2417V103.442L557.072 111.762H541.632L536.512 107.522V128.722H525.952V71.9217ZM551.952 102.802L554.752 100.002V83.6817L551.952 80.8817H542.912L536.512 87.3617V97.1217L542.832 102.802H551.952Z" fill="white"/>
</svg>
